<svg width="100" height="100" viewBox="0 0 100 100" fill="none" xmlns="http://www.w3.org/2000/svg">
<path fill-rule="evenodd" clip-rule="evenodd" d="M58.7324 14.5432L49.1735 29.0852L39.8741 32.1073L30.5737 35.1283L22.9739 47.5258C18.7931 54.3448 15.1395 59.6762 14.8558 59.3733C14.0448 58.5108 -0.146764 63.4805 0.00114813 64.5753C0.073595 65.1114 2.28121 73.3022 4.90842 82.7751L9.68388 100L16.8511 97.6553C23.7989 95.3824 24.0092 95.2122 23.7235 92.1003C23.4287 88.8941 23.4417 88.8856 31.7731 87.0021C39.851 85.1754 49.6766 80.6327 49.6766 78.7246C49.6766 76.396 52.9548 76.8754 56.9313 79.784L61.2781 82.9656L72.8344 65.1917C79.1906 55.416 87.9034 42.0157 92.1959 35.413L100 23.4092L86.6617 13.5522C79.3255 8.1309 72.1905 2.86369 70.8069 1.84706L68.2914 0L58.7324 14.5432ZM81.5764 14.8974C88.1056 19.7034 93.6418 23.8031 93.8792 24.0075C94.3029 24.3724 80.9082 45.7537 80.2562 45.7537C80.0751 45.7537 80.1928 45.0132 80.5198 44.1078C81.5079 41.3704 77.9409 33.2181 74.2451 29.7669C70.1458 25.939 67.4341 25.0658 61.2711 25.587C58.7687 25.7989 56.72 25.8074 56.72 25.6052C56.72 25.0787 69.0752 6.15864 69.4194 6.15864C69.5773 6.15864 75.0481 10.0914 81.5764 14.8974ZM75.2232 20.5306C74.221 23.3076 75.6246 25.602 78.0979 25.2285C79.7601 24.977 80.3659 24.1723 80.3659 22.2107C80.3659 20.2491 79.7601 19.4444 78.0979 19.1929C76.7365 18.9874 75.5864 19.5225 75.2232 20.5306ZM70.33 31.859C74.2602 34.4424 77.2708 40.5914 76.4034 44.2662C75.1105 49.7442 67.7883 53.8953 67.7883 49.1503C67.7883 48.0759 66.6845 46.094 65.3342 44.7456C63.4455 42.8579 62.0348 42.3988 59.2003 42.7509C56.0509 43.1415 55.3878 42.8397 54.609 40.6609C53.3955 37.2664 54.451 33.2245 57.0591 31.2822C60.0667 29.0414 66.4661 29.3196 70.33 31.859ZM40.4134 43.6552C37.4673 48.5778 35.6571 52.624 36.1823 53.1152C36.6864 53.586 38.7371 55.0125 40.7384 56.2838L44.3789 58.5943L51.3036 52.7149C55.1131 49.481 59.2325 46.8335 60.4581 46.8303C62.9112 46.8228 64.7868 49.664 63.9858 52.1745C63.1547 54.7835 45.9989 77.2018 43.7017 78.6807C41.5535 80.0644 26.3386 84.2572 23.4196 84.2711C22.2665 84.2765 21.0369 81.523 19.0547 74.5008C17.484 68.9318 16.6951 64.4404 17.2224 64.0669C17.7325 63.7063 21.538 57.8644 25.6775 51.0862C32.8367 39.3661 33.4495 38.6747 38.1716 37.0085C40.9014 36.0454 43.6816 35.2107 44.3487 35.1551C45.0158 35.0983 43.2449 38.923 40.4134 43.6552ZM50.713 41.593C51.7272 45.5964 51.6165 46.2331 49.4944 48.6473C46.0935 52.5159 43.7782 53.6288 42.1401 52.1842C41.0151 51.1911 41.4971 49.741 44.8327 44.0832C47.0675 40.2939 49.0537 37.1926 49.2469 37.1926C49.4411 37.1926 50.1002 39.1734 50.713 41.593ZM67.6937 65.5512C63.7021 71.7313 60.1663 76.7716 59.8362 76.7523C59.5062 76.732 58.172 75.7742 56.873 74.6228L54.5104 72.5296L60.7298 64.2243C66.5235 56.4893 68.5852 54.9269 73.6334 54.4411C74.3588 54.3715 71.6853 59.3712 67.6937 65.5512ZM15.8117 77.9391C17.9398 85.6313 19.5246 92.0585 19.3334 92.2233C19.1432 92.387 17.5263 93.0462 15.7412 93.6862L12.4962 94.8505L9.39711 83.9469C7.69259 77.9488 5.86834 71.6403 5.3431 69.9259C4.81786 68.2116 4.50392 66.7123 4.64379 66.5946C4.96376 66.326 10.7555 64.144 11.4407 64.0338C11.7174 63.9899 13.6846 70.247 15.8117 77.9391Z" fill="black"/>
</svg>
