<svg width="82" height="82" viewBox="0 0 82 82" fill="none" xmlns="http://www.w3.org/2000/svg">
<path fill-rule="evenodd" clip-rule="evenodd" d="M48.0512 0.194054C46.857 0.583355 45.6717 1.62743 44.3438 3.45995C43.0512 5.24327 42.879 5.78276 43.3522 6.56489C43.6614 7.07598 44.3079 7.25438 44.7713 6.9566C44.9735 6.82665 45.6758 6.01816 46.332 5.15992C46.9881 4.30167 47.8136 3.42523 48.1664 3.2123C48.9593 2.73389 50.5027 2.69509 51.213 3.13563C51.4776 3.29974 56.1277 7.86999 61.5465 13.292C70.274 22.0244 71.4595 23.15 71.9291 23.15C72.6313 23.15 73.1006 22.5949 73.1006 21.7643C73.1006 21.0214 74.0789 22.0582 61.3581 9.31933C52.3938 0.342385 52.1097 0.108285 50.0535 0.00822149C49.3369 -0.0266801 48.4864 0.0522196 48.0512 0.194054ZM24.4347 2.80295C22.3925 3.55073 21.1132 5.06616 20.3466 7.64591C19.7732 9.57552 20.0323 10.526 21.1318 10.526C21.8999 10.526 22.1751 10.1811 22.6178 8.66307C23.2 6.66718 24.6158 5.32793 26.1434 5.32793C26.4963 5.32793 44.7056 12.3023 58.9255 17.8838C60.4974 18.5007 61.1588 18.858 61.5553 19.3047C62.2524 20.0896 62.6701 21.1855 62.6744 22.2405C62.6771 22.8823 60.7429 29.7735 54.901 49.9349C50.6237 64.697 47.1241 76.9898 47.1241 77.2525C47.1241 78.3678 48.4932 78.9082 49.157 78.055C49.5147 77.5952 64.8645 24.782 65.0713 23.2995C65.2299 22.1624 65.015 20.4028 64.5898 19.3554C64.1448 18.2593 63.1322 16.9442 62.2965 16.3772C61.9278 16.127 53.8769 12.9121 44.4055 9.23282C28.4956 3.05245 27.1047 2.54416 26.1306 2.55567C25.5506 2.56253 24.7875 2.67374 24.4347 2.80295ZM4.0704 12.5299C2.23007 13.2736 0.86935 14.8952 0.299309 17.0237C-0.0196248 18.2148 -0.0233128 18.6076 0.018859 47.4697L0.0616722 76.7091L0.429994 77.6373C1.27616 79.7702 2.45167 81.0307 4.17238 81.6508C5.09679 81.984 5.97775 82 23.3924 82C40.6936 82 41.6932 81.9822 42.5958 81.6569C44.3225 81.0346 45.5447 79.7667 46.3804 77.7301L46.7232 76.8947V47.0984V17.3021L46.3047 16.2811C45.684 14.7668 44.7124 13.6074 43.4712 12.8999L42.4007 12.2897L23.6363 12.2477C6.14227 12.2087 4.81794 12.2279 4.0704 12.5299ZM41.9128 15.1867C42.8987 15.4991 43.9989 16.9121 44.2317 18.1652C44.3677 18.8967 44.4035 26.6712 44.3672 47.6554L44.318 76.1521L43.9728 76.8947C43.5728 77.7552 43.1021 78.2889 42.3136 78.7759C41.7752 79.1084 41.009 79.1225 23.3924 79.1225C5.77587 79.1225 5.00972 79.1084 4.47127 78.7759C3.68283 78.2889 3.21205 77.7552 2.81214 76.8947L2.46691 76.1521V47.0984V18.0447L2.82737 17.2641C3.23225 16.3867 4.04843 15.5576 4.83029 15.2294C5.54865 14.9277 40.9664 14.8871 41.9128 15.1867ZM22.5383 17.7308C22.3938 17.9155 21.5077 19.8997 20.5692 22.1399C19.6308 24.3803 18.8379 26.2457 18.8073 26.2852C18.7766 26.3247 16.91 26.6663 14.6594 27.0441C10.1268 27.8049 9.9265 27.8905 9.91881 29.0731C9.9148 29.6976 10.1075 29.9571 12.9175 33.1107L15.9207 36.4807L15.2451 41.0935C14.8736 43.6304 14.5704 45.8561 14.5713 46.0393C14.5741 46.5047 15.2891 47.2841 15.7135 47.2841C15.9075 47.2841 17.7177 46.2766 19.736 45.045L23.4056 42.8061L27.075 45.045C29.0933 46.2766 30.8976 47.2841 31.0845 47.2841C31.5302 47.2841 32.2116 46.4837 32.2116 45.9602C32.2116 45.7336 31.9115 43.5114 31.5446 41.0222L30.8774 36.4967L33.8697 33.1495C36.7319 29.9475 36.8618 29.7713 36.8618 29.0887C36.8618 27.8847 36.6006 27.768 32.3552 27.074C30.2919 26.7367 28.475 26.4194 28.3176 26.3689C28.1348 26.3101 27.3898 24.7893 26.2561 22.1609C25.2798 19.8969 24.3691 17.8986 24.2325 17.7198C23.898 17.2823 22.8837 17.289 22.5383 17.7308ZM26.7045 28.8653C27.093 29.0406 32.3486 30.0189 32.901 30.0189C33.0047 30.0189 32.0261 31.2522 30.7263 32.7594C28.9368 34.835 28.3633 35.6132 28.3633 35.9667C28.3633 36.2234 28.5826 37.8831 28.8509 39.6547C29.119 41.4266 29.3173 42.9422 29.2918 43.0229C29.2662 43.1035 28.0341 42.4246 26.5537 41.514C25.0734 40.6032 23.6737 39.8582 23.4433 39.8582C23.2129 39.8582 21.7723 40.6142 20.2419 41.5381C18.7115 42.4621 17.4595 43.1512 17.4597 43.0697C17.4599 42.9882 17.6763 41.4722 17.9407 39.701C18.2052 37.9297 18.4216 36.2364 18.4216 35.9379C18.4216 35.4838 18.0424 34.9675 16.0953 32.7706C14.8157 31.327 13.7875 30.1244 13.8103 30.0982C13.8331 30.0722 15.1766 29.8292 16.796 29.5583C18.4154 29.2873 19.911 28.9906 20.1197 28.8987C20.4039 28.7736 20.8678 27.8795 21.9674 25.3375L23.4357 21.9433L24.842 25.3015C26.0251 28.127 26.3206 28.6923 26.7045 28.8653ZM74.3249 23.9061C73.8196 24.3662 73.751 25.3249 74.183 25.8883C74.3372 26.0895 75.4414 27.2244 76.6365 28.4101C79.174 30.9277 79.5758 31.5919 79.5725 33.2622C79.571 33.9485 79.4652 34.6141 79.2988 34.9826C79.1496 35.313 73.2733 43.2912 66.2406 52.7118C50.3027 74.0608 51.6139 72.2582 51.6139 72.8214C51.6139 73.4673 52.2854 74.2028 52.8749 74.2028C53.2247 74.2028 53.5169 73.9964 53.9912 73.4138C54.3446 72.98 60.5583 64.6884 67.7995 54.9884C78.0798 41.2171 81.0786 37.0884 81.4826 36.1492C81.9506 35.0615 82 34.7865 82 33.2716C82 31.7824 81.945 31.4633 81.5032 30.3902C80.9544 29.0571 80.2245 28.1725 77.3035 25.3009C75.3697 23.3997 75.0468 23.2486 74.3249 23.9061ZM4.57309 51.7531C4.02726 52.2501 3.99279 53.2257 4.50157 53.7745C4.85049 54.151 4.95584 54.153 23.4228 54.153C41.7792 54.153 41.9966 54.1487 42.3136 53.7817C42.7602 53.2647 42.7357 52.286 42.2633 51.7719L41.8921 51.3683H23.4438C5.02303 51.3683 4.99497 51.3689 4.57309 51.7531ZM10.2979 59.811C10.1119 59.9617 9.91399 60.2966 9.85787 60.555C9.74066 61.0958 10.1 62.0322 10.4916 62.2062C10.6343 62.2695 12.1396 62.3215 13.8368 62.3215C16.855 62.3215 16.9302 62.312 17.2713 61.8919C17.715 61.345 17.7283 60.4048 17.2992 59.908C17.0001 59.5618 16.7647 59.5368 13.8073 59.5368C11.2701 59.5368 10.5682 59.5915 10.2979 59.811ZM19.7044 59.908C19.2269 60.4609 19.2768 61.4545 19.8062 61.9366C20.2207 62.3142 20.3784 62.3215 28.2068 62.3215C35.7629 62.3215 36.2045 62.3031 36.5553 61.9741C37.0702 61.4914 37.0702 60.3668 36.5553 59.8841C36.2043 59.5549 35.7605 59.5368 28.1049 59.5368C20.2389 59.5368 20.0166 59.5466 19.7044 59.908ZM10.4409 65.0447C10.095 65.2058 9.74851 66.1822 9.85787 66.6869C10.088 67.7479 9.51954 67.7052 23.4104 67.7052C35.6527 67.7052 36.2003 67.6907 36.5553 67.3579C37.0702 66.8752 37.0702 65.7505 36.5553 65.2679C36.2 64.9346 35.6632 64.9211 23.4147 64.9352C16.3913 64.9432 10.553 64.9925 10.4409 65.0447ZM10.3062 70.739C9.75365 71.2893 9.71628 72.1893 10.2215 72.7745L10.5735 73.1818H23.4107H36.2481L36.6352 72.6609C36.848 72.3744 37.0221 72.0233 37.0221 71.8806C37.0221 71.3764 36.6612 70.7138 36.2754 70.5103C35.9996 70.365 32.1852 70.3043 23.3137 70.3043H10.7428L10.3062 70.739Z" fill="black"/>
</svg>
