<svg width="100" height="100" viewBox="0 0 100 100" fill="none" xmlns="http://www.w3.org/2000/svg">
<path fill-rule="evenodd" clip-rule="evenodd" d="M50.2468 22.0332C45.5769 22.5994 38.7346 24.9112 38.0736 26.1463C37.6973 26.8493 37.8191 27.6739 38.3822 28.2371C39.0531 28.9081 39.7594 28.912 41.0638 28.2519C43.5207 27.0087 47.5435 25.8687 50.6275 25.5414L52.2045 25.3739V27.4088C52.2045 29.279 52.2475 29.4865 52.7385 29.9772C53.075 30.3139 53.5209 30.5112 53.9446 30.5112C54.3683 30.5112 54.8143 30.3139 55.1508 29.9772C55.6417 29.4865 55.6848 29.279 55.6848 27.4088V25.3739L57.2618 25.5414C60.468 25.8816 64.3374 27.0005 67.1045 28.3874C68.7659 29.22 71.6543 31.0922 72.7165 32.0249L73.5363 32.7447L72.115 34.2171C70.4869 35.9035 70.2898 36.6529 71.2275 37.5904C72.1661 38.5292 72.9142 38.3315 74.6076 36.6966L76.0865 35.2688L76.9248 36.2672C80.0719 40.0159 82.5216 45.746 83.1667 50.8677L83.4384 53.0244L81.2876 53.1332C79.3584 53.2306 79.0939 53.2948 78.7217 53.7555C78.1436 54.4707 78.1927 55.4317 78.8407 56.0794C79.3314 56.5704 79.5389 56.6135 81.4092 56.6135H83.4441L83.2766 58.1905C82.9364 61.3967 81.8174 65.2661 80.4305 68.0332C79.5979 69.6946 77.7257 72.583 76.793 73.6452L76.0732 74.465L74.6008 73.0437C72.9144 71.4156 72.1651 71.2185 71.2275 72.1562C70.2885 73.0951 70.4865 73.8427 72.1222 75.5369L73.5507 77.0167L72.231 78.0845C68.3641 81.2133 62.3835 83.6732 57.3705 84.197L55.6848 84.373V82.3381C55.6848 80.4676 55.6417 80.2601 55.1508 79.7694C54.4445 79.0629 53.4448 79.0629 52.7385 79.7694C52.2471 80.2606 52.2045 80.4668 52.2045 82.3529V84.4023L51.1712 84.3073C48.21 84.0343 44.3531 82.9926 41.5698 81.714C39.6567 80.8352 39.0927 80.7989 38.3822 81.5095C37.748 82.1436 37.6823 83.1179 38.2289 83.7835C38.699 84.3556 42.0263 85.8042 44.5543 86.5373C47.8902 87.5046 50.0911 87.8017 53.9446 87.8048C59.3173 87.8089 63.2827 86.9227 68.0833 84.6446C71.8018 82.8801 74.6656 80.8768 77.4046 78.1239C90.2176 65.2468 90.0779 44.1292 77.0951 31.3065C72.366 26.6357 66.3319 23.5474 59.5938 22.3495C57.2809 21.9384 52.3937 21.7731 50.2468 22.0332ZM21.4158 32.7854C21.0791 33.1219 20.8818 33.5678 20.8818 33.9915C20.8818 34.4152 21.0791 34.8612 21.4158 35.1977L21.9496 35.7317H31.9752H42.0009L42.5347 35.1977C42.8714 34.8612 43.0687 34.4152 43.0687 33.9915C43.0687 33.5678 42.8714 33.1219 42.5347 32.7854L42.0009 32.2514H31.9752H21.9496L21.4158 32.7854ZM62.0698 44.2514L57.4471 48.8561L56.3234 48.493C52.9221 47.3946 49.1612 48.8061 47.7377 51.7154C46.9159 53.3953 46.7835 55.3984 47.3786 57.1516L47.8195 58.4513L46.9668 59.3764C45.9399 60.4903 45.8188 61.4809 46.6173 62.2311C47.4291 62.9935 48.3513 62.856 49.4946 61.8021L50.4728 60.9005L51.5813 61.2583C54.9143 62.3348 58.6519 60.946 60.1139 58.0878C60.9781 56.3977 61.1212 54.3902 60.5056 52.5894L60.0595 51.2842L64.6152 46.7048C68.6661 42.6327 69.1709 42.0471 69.1709 41.42C69.1709 40.4751 68.3428 39.647 67.3979 39.647C66.7704 39.647 66.1831 40.1545 62.0698 44.2514ZM10.9749 43.2263C10.6382 43.5628 10.4409 44.0087 10.4409 44.4324C10.4409 44.8561 10.6382 45.3021 10.9749 45.6386L11.5087 46.1726H25.3207C35.1229 46.1726 39.2895 46.1012 39.6721 45.9268C40.3129 45.6349 40.7739 44.6486 40.57 44.0061C40.49 43.754 40.2179 43.3553 39.9653 43.1199C39.5188 42.704 39.1255 42.6923 25.5075 42.6923H11.5087L10.9749 43.2263ZM55.6693 51.9916C56.8594 52.5983 57.3162 53.3977 57.3162 54.8733C57.3162 55.8184 57.2 56.3048 56.8657 56.7607C55.5305 58.5807 52.3587 58.5807 51.0236 56.7607C50.6892 56.3048 50.5731 55.8184 50.5731 54.8733C50.5731 53.9282 50.6892 53.4418 51.0236 52.9859C51.6407 52.1448 52.7744 51.6112 53.9446 51.6112C54.483 51.6112 55.2591 51.7824 55.6693 51.9916ZM0.534009 53.6672C0.19729 54.0037 0 54.4496 0 54.8733C0 55.297 0.19729 55.7429 0.534009 56.0794L1.0678 56.6135H19.1416H37.2155L37.7493 56.0794C38.4558 55.3732 38.4558 54.3734 37.7493 53.6672L37.2155 53.1332H19.1416H1.0678L0.534009 53.6672ZM10.9749 64.1081C10.6382 64.4446 10.4409 64.8905 10.4409 65.3142C10.4409 65.7379 10.6382 66.1838 10.9749 66.5203L11.5087 67.0543H25.3207C35.1229 67.0543 39.2895 66.983 39.6721 66.8086C40.3129 66.5166 40.7739 65.5304 40.57 64.8879C40.49 64.6358 40.2179 64.237 39.9653 64.0017C39.5188 63.5858 39.1255 63.5741 25.5075 63.5741H11.5087L10.9749 64.1081ZM21.4158 74.549C21.0791 74.8854 20.8818 75.3314 20.8818 75.7551C20.8818 76.1788 21.0791 76.6247 21.4158 76.9612L21.9496 77.4952H31.9752H42.0009L42.5347 76.9612C42.8714 76.6247 43.0687 76.1788 43.0687 75.7551C43.0687 75.3314 42.8714 74.8854 42.5347 74.549L42.0009 74.0149H31.9752H21.9496L21.4158 74.549Z" fill="black"/>
</svg>
