<svg width="151" height="31" viewBox="0 0 151 31" fill="none" xmlns="http://www.w3.org/2000/svg">
<path fill-rule="evenodd" clip-rule="evenodd" d="M75.3136 8.70874V14.9644C75.3242 15.0889 75.2982 15.2138 75.2387 15.3232C75.1565 15.4106 75.0483 15.4682 74.9308 15.4872V15.6816H76.6353V15.4872C76.5184 15.4668 76.4113 15.4082 76.3303 15.3202C76.2693 15.2125 76.2422 15.0885 76.2525 14.9648V8.10557C76.2415 7.98079 76.2686 7.85559 76.3303 7.74709C76.4123 7.66095 76.5191 7.60353 76.6353 7.5831V7.3887H74.499V7.5831C74.6944 7.65201 74.7921 7.73907 74.7922 7.84428C74.7713 7.99018 74.7225 8.13052 74.6485 8.2574L71.9162 13.7726L69.1965 8.30641C69.0652 8.04322 68.9995 7.88728 68.9996 7.83857C68.9996 7.73741 69.0971 7.65238 69.2922 7.58346V7.38907H67.1795V7.58346C67.2962 7.60053 67.4037 7.65727 67.4845 7.74442C67.5458 7.85418 67.5729 7.98022 67.5623 8.10594V14.9644C67.5733 15.0892 67.5462 15.2144 67.4845 15.3229C67.4026 15.409 67.2957 15.4665 67.1795 15.4869V15.6813H68.7941V15.4869C68.6772 15.4665 68.57 15.4078 68.4891 15.3198C68.4281 15.212 68.401 15.0879 68.4113 14.964V8.70838L71.8474 15.6809L75.3136 8.70874ZM88.8118 7.61995C87.9776 7.92953 87.2642 8.50478 86.7782 9.25987C86.2368 10.1032 86.0154 11.1176 86.1552 12.1144C86.2951 13.1111 86.7866 14.0224 87.5383 14.6786C88.4154 15.4441 89.5698 15.8268 91.0014 15.8268C91.7497 15.8389 92.4937 15.7112 93.1965 15.4501C94.0302 15.1394 94.7418 14.5615 95.2237 13.8038C95.6567 13.148 95.8878 12.3762 95.8877 11.5865C95.8921 11.0268 95.7886 10.4717 95.5829 9.95242C95.343 9.34753 94.9609 8.81152 94.47 8.39117C93.5892 7.62575 92.4288 7.24301 90.9887 7.24295C90.1515 7.25523 89.4259 7.38081 88.8118 7.61967V7.61995ZM92.6758 8.33672C93.1461 8.5013 93.5749 8.76883 93.9321 9.12038C94.5815 9.74411 94.9063 10.5641 94.9063 11.5803C94.9156 12.0224 94.8337 12.4615 94.6659 12.8696C94.4982 13.2776 94.2482 13.6454 93.9321 13.9495C93.2185 14.6461 92.2417 14.9944 91.0014 14.9944C89.7651 14.9944 88.7922 14.6461 88.0825 13.9495C87.4286 13.3097 87.1017 12.5038 87.102 11.5317C87.102 10.5638 87.4289 9.75986 88.0825 9.11992C88.7964 8.42342 89.7651 8.07513 90.9887 8.07507C91.5612 8.06994 92.1308 8.15813 92.6758 8.33626V8.33626V8.33672ZM111.533 8.17881C111.657 8.16824 111.781 8.19511 111.889 8.25601C111.976 8.33825 112.032 8.44829 112.048 8.5676H112.239V7H112.048C112.031 7.11908 111.975 7.22887 111.889 7.31104C111.781 7.37237 111.657 7.39944 111.533 7.38879H105.068C104.944 7.39956 104.821 7.37248 104.712 7.31104C104.626 7.2291 104.57 7.11919 104.554 7H104.362V8.56733H104.554C104.569 8.4479 104.625 8.33773 104.712 8.25574C104.821 8.1947 104.944 8.16782 105.068 8.17853H107.831V14.9641C107.842 15.0888 107.815 15.214 107.754 15.3226C107.671 15.4086 107.564 15.466 107.448 15.4866V15.681H109.153V15.4866C109.036 15.4664 108.929 15.4077 108.848 15.3196C108.787 15.2118 108.76 15.0878 108.771 14.9641V8.17927H111.533V8.17881ZM123.423 7.61995C122.589 7.92953 121.875 8.50478 121.389 9.25987C120.848 10.1032 120.627 11.1176 120.766 12.1144C120.906 13.1111 121.398 14.0224 122.149 14.6786C123.026 15.4441 124.18 15.8268 125.612 15.8268C126.36 15.839 127.104 15.7113 127.807 15.4501C128.641 15.1394 129.353 14.5616 129.835 13.8038C130.268 13.1479 130.498 12.3761 130.498 11.5865C130.502 11.0268 130.399 10.4717 130.193 9.95242C129.954 9.34741 129.572 8.81131 129.081 8.39117C128.2 7.62575 127.039 7.24301 125.6 7.24295C124.763 7.25523 124.037 7.38081 123.423 7.61967V7.61995ZM127.287 8.33672C127.757 8.50133 128.186 8.76886 128.542 9.12038C129.193 9.74411 129.518 10.5641 129.517 11.5803C129.527 12.0224 129.445 12.4617 129.277 12.8698C129.109 13.2778 128.859 13.6456 128.542 13.9495C127.829 14.6461 126.852 14.9944 125.612 14.9944C124.376 14.9944 123.404 14.6461 122.694 13.9495C122.04 13.3097 121.713 12.5038 121.712 11.5317C121.712 10.5638 122.039 9.75986 122.694 9.11992C123.407 8.42342 124.375 8.07513 125.6 8.07507C126.172 8.07002 126.742 8.1582 127.287 8.33626V8.33626V8.33672ZM68.2381 24.4937C68.2271 24.369 68.2542 24.2438 68.3159 24.1354C68.3978 24.0491 68.5046 23.9917 68.6209 23.9714V23.8074H67V23.9714C67.1163 23.9917 67.2231 24.0492 67.305 24.1354C67.3667 24.2438 67.3938 24.369 67.3828 24.4937V29.9248C67.393 30.0483 67.3659 30.1721 67.305 30.2795C67.2241 30.3677 67.117 30.4266 67 30.4472V30.6112H72.323C72.4467 30.6003 72.5707 30.6276 72.6789 30.6895C72.7654 30.7721 72.8231 30.8811 72.8433 31H73.0047V29.56H72.8431C72.8234 29.6793 72.7656 29.7887 72.6787 29.8714C72.5703 29.9325 72.4464 29.9594 72.3228 29.9488H68.2381V24.4937V24.4937ZM85.6063 27.4281C85.728 27.4178 85.8499 27.4448 85.9564 27.5055C86.0435 27.588 86.1012 27.6975 86.1206 27.8169H86.282V26.3769H86.1206C86.1006 26.4949 86.0441 26.6034 85.9591 26.6864C85.8524 26.7491 85.7291 26.7768 85.6063 26.7657H82.9931V24.4689H87.0957C87.2184 24.4576 87.3416 24.4849 87.4485 24.5472C87.5338 24.6304 87.5904 24.7392 87.61 24.8577H87.7714V23.4186H87.61C87.59 23.5366 87.5334 23.6451 87.4485 23.7281C87.3417 23.7908 87.2185 23.8185 87.0957 23.8074H81.755V23.9714C81.8712 23.9916 81.9779 24.0491 82.0597 24.1354C82.1214 24.2438 82.1487 24.369 82.1377 24.4937V29.9248C82.1476 30.048 82.1214 30.1714 82.0625 30.2795C81.9814 30.3689 81.8731 30.4279 81.755 30.4472V30.6112H87.1374C87.2601 30.5999 87.3833 30.6273 87.4902 30.6895C87.5745 30.7727 87.6293 30.8819 87.6463 31H87.8131V29.56H87.6463C87.6297 29.6791 87.5738 29.789 87.4875 29.8714C87.3792 29.9324 87.2554 29.9594 87.132 29.9488H82.9931V27.4281H85.6063V27.4281ZM98.1961 24.4937C98.185 24.3691 98.2119 24.2439 98.2732 24.1354C98.3556 24.0493 98.4626 23.9919 98.5789 23.9714V23.8074H96.958V23.9714C97.0742 23.9916 97.181 24.0491 97.2628 24.1354C97.3245 24.2438 97.3517 24.369 97.3408 24.4937V29.9248C97.3509 30.0484 97.3237 30.1721 97.2628 30.2795C97.182 30.3677 97.0749 30.4266 96.958 30.4472V30.6112H102.281C102.404 30.6003 102.529 30.6276 102.637 30.6895C102.723 30.7724 102.781 30.8813 102.801 31H102.963V29.56H102.801C102.781 29.6792 102.724 29.7885 102.637 29.8714C102.528 29.9326 102.404 29.9595 102.281 29.9488H98.1961V24.4937V24.4937ZM116.995 29.8391C117.06 29.9658 117.108 30.1005 117.139 30.2399C117.139 30.3376 117.046 30.4067 116.859 30.4472V30.6112H118.602V30.4472C118.45 30.4259 118.31 30.3505 118.207 30.2344C118.057 30.0368 117.932 29.8204 117.836 29.5904L115.708 24.8825C115.548 24.526 115.468 24.3092 115.468 24.2321C115.468 24.1031 115.568 24.0156 115.767 23.9714V23.8074H113.824V23.9714C114.023 24.0036 114.123 24.0905 114.123 24.2321C114.123 24.3334 114.06 24.5195 113.937 24.7913L111.718 29.6871C111.639 29.8912 111.531 30.0826 111.398 30.2556C111.298 30.3603 111.167 30.4278 111.025 30.4472V30.6112H112.675V30.4472C112.468 30.3901 112.363 30.2934 112.363 30.1552C112.375 30.0446 112.408 29.9374 112.459 29.8391L112.964 28.6977H116.479L116.995 29.8391ZM113.258 28.0352L114.736 24.6992L116.199 28.0352H113.258ZM132.603 29.7424C132.795 29.9608 132.89 30.1125 132.891 30.1975C132.891 30.3109 132.786 30.3947 132.58 30.4472V30.6112H134.332V30.4472C134.214 30.4281 134.105 30.3691 134.024 30.2795C133.965 30.1713 133.939 30.0479 133.949 29.9248V24.4937C133.938 24.3689 133.965 24.2437 134.027 24.1354C134.109 24.0491 134.216 23.9916 134.332 23.9714V23.8074H132.854V23.9714C132.971 23.9916 133.077 24.0491 133.159 24.1354C133.221 24.2437 133.249 24.3689 133.237 24.4937V29.22L129.284 24.7241C129.133 24.5546 129.057 24.4081 129.057 24.2874C129.057 24.1455 129.16 24.0395 129.368 23.9714V23.8074H127.191V23.9714C127.307 23.9916 127.414 24.0491 127.496 24.1354C127.557 24.2438 127.585 24.369 127.574 24.4937V29.9248C127.584 30.048 127.557 30.1714 127.498 30.2795C127.417 30.3689 127.309 30.4279 127.191 30.4472V30.6112H128.668V30.4472C128.55 30.4281 128.441 30.3691 128.36 30.2795C128.301 30.1713 128.276 30.0479 128.286 29.9248V24.8706L132.603 29.7424ZM150.725 24.3472C150.585 24.5094 150.492 24.5905 150.444 24.5905C150.374 24.5803 150.307 24.5555 150.247 24.5177C149.781 24.2512 149.289 24.0336 148.779 23.8682C148.338 23.7422 147.881 23.6808 147.424 23.6858C146.873 23.6815 146.326 23.7782 145.809 23.9714C145.166 24.2032 144.603 24.6188 144.188 25.1681C143.741 25.7578 143.5 26.4828 143.506 27.2272C143.507 27.7431 143.623 28.252 143.847 28.7152C144.053 29.1588 144.351 29.5524 144.72 29.8696C145.413 30.461 146.301 30.7568 147.385 30.7568C148.713 30.7741 150.001 30.2917 151 29.4024V29.2624C150.883 29.2457 150.775 29.1888 150.694 29.1012C150.634 28.9913 150.607 28.8655 150.617 28.74V28.0352C150.607 27.9097 150.634 27.784 150.694 27.6741C150.775 27.5861 150.883 27.5292 151 27.5129V27.3489H148.362C148.239 27.3598 148.115 27.3325 148.007 27.2705C147.92 27.1886 147.864 27.079 147.848 26.9601H147.687V28.4001H147.848C147.865 28.2814 147.921 28.1719 148.007 28.0896C148.115 28.0276 148.239 28.0003 148.363 28.0113H149.87V29.2624C149.554 29.5228 149.193 29.7198 148.805 29.8428C148.378 29.9835 147.932 30.0541 147.483 30.052C146.563 30.052 145.821 29.7906 145.258 29.2679C144.689 28.7456 144.404 28.0733 144.403 27.2512C144.403 26.3852 144.714 25.6785 145.336 25.1313C145.894 24.6375 146.595 24.3906 147.44 24.3906C148.126 24.3895 148.8 24.5716 149.395 24.9185C149.774 25.1414 149.962 25.3054 149.962 25.4104C149.953 25.5075 149.933 25.6033 149.903 25.696L150.04 25.7817L150.863 24.4449L150.725 24.3472Z" fill="white"/>
<path d="M56 31H50.4464V18.0833C50.4464 16.9208 50.2073 15.8014 49.7291 14.725C49.2509 13.706 48.5875 12.7947 47.7391 11.991C46.8752 11.2016 45.8956 10.5845 44.8003 10.1396C43.6433 9.69468 42.44 9.47222 41.1905 9.47222C39.6787 9.47222 38.2517 9.79514 36.9096 10.441C35.6138 11.0725 34.5416 11.9407 33.6932 13.0458C34.3719 14.6532 34.7113 16.3324 34.7113 18.0833V31H29.1578V18.0833C29.1578 16.2176 28.5716 14.5384 27.3991 13.0458C26.5507 11.9407 25.4785 11.0725 24.1827 10.441C22.8406 9.79514 21.4136 9.47222 19.9018 9.47222C18.6523 9.47222 17.449 9.69468 16.292 10.1396C15.1813 10.5845 14.2017 11.2016 13.3532 11.991C12.5048 12.7947 11.8414 13.706 11.3632 14.725C10.885 15.8014 10.6459 16.9208 10.6459 18.0833V31H5.09231V18.0833C5.09231 16.2176 5.47798 14.4308 6.24931 12.7229C7.00521 11.0725 8.06193 9.60857 9.41947 8.33125C10.7924 7.06829 12.3659 6.08519 14.14 5.38194C15.9758 4.66435 17.8964 4.30556 19.9018 4.30556C21.9536 4.30556 23.9127 4.6787 25.7793 5.425C27.5843 6.15694 29.1732 7.1831 30.5462 8.50347C31.9191 7.1831 33.5081 6.15694 35.313 5.425C37.1796 4.6787 39.1388 4.30556 41.1905 4.30556C43.1959 4.30556 45.1166 4.66435 46.9523 5.38194C48.7264 6.08519 50.2999 7.06829 51.6728 8.33125C53.0304 9.60857 54.0871 11.0725 54.843 12.7229C55.6143 14.4308 56 16.2176 56 18.0833V31Z" fill="white"/>
<path d="M11.8097 16.9901C11.8097 18.0072 12.0189 18.9868 12.4373 19.9286C12.8558 20.8202 13.4362 21.6176 14.1786 22.3209C14.921 23.0116 15.7782 23.5515 16.75 23.9408C17.7489 24.3301 18.8018 24.5248 19.9086 24.5248C21.002 24.5248 22.0548 24.3301 23.0672 23.9408C24.0256 23.5515 24.8827 23.0116 25.6386 22.3209C26.381 21.6176 26.9547 20.8202 27.3597 19.9286C27.7916 18.9868 28.0076 18.0072 28.0076 16.9901C28.0076 15.9729 27.7916 14.9934 27.3597 14.0515C26.9547 13.1473 26.381 12.3499 25.6386 11.6592C24.8827 10.9686 24.0256 10.4286 23.0672 10.0393C22.0548 9.64998 21.002 9.45533 19.9086 9.45533C18.8018 9.45533 17.7489 9.64998 16.75 10.0393C15.7782 10.4286 14.921 10.9686 14.1786 11.6592C13.4362 12.3499 12.8558 13.1473 12.4373 14.0515C12.0189 14.9934 11.8097 15.9729 11.8097 16.9901ZM19.9086 4.9345C21.6634 4.9345 23.3439 5.24844 24.9502 5.87634C26.5025 6.49167 27.8793 7.35189 29.0807 8.45698C30.2685 9.57463 31.1932 10.8555 31.8546 12.2997C32.5295 13.7941 32.867 15.3575 32.867 16.9901C32.867 18.6226 32.5295 20.186 31.8546 21.6804C31.1932 23.1246 30.2685 24.4055 29.0807 25.5231C27.8793 26.6282 26.5025 27.4884 24.9502 28.1038C23.3439 28.7317 21.6634 29.0456 19.9086 29.0456C18.1539 29.0456 16.4733 28.7317 14.867 28.1038C13.3147 27.4884 11.9379 26.6282 10.7366 25.5231C9.54872 24.4055 8.62409 23.1246 7.96268 21.6804C7.28776 20.186 6.95031 18.6226 6.95031 16.9901C6.95031 15.3575 7.28776 13.7941 7.96268 12.2997C8.62409 10.8555 9.54872 9.57463 10.7366 8.45698C11.9379 7.35189 13.3147 6.49167 14.867 5.87634C16.4733 5.24844 18.1539 4.9345 19.9086 4.9345Z" fill="white"/>
<path d="M33.6538 16.9901C33.6538 18.0072 33.863 18.9868 34.2814 19.9286C34.6999 20.8202 35.2803 21.6176 36.0227 22.3209C36.7651 23.0116 37.6222 23.5515 38.5941 23.9408C39.593 24.3301 40.6458 24.5248 41.7527 24.5248C42.8461 24.5248 43.8989 24.3301 44.9113 23.9408C45.8697 23.5515 46.7268 23.0116 47.4827 22.3209C48.2251 21.6176 48.7988 20.8202 49.2037 19.9286C49.6357 18.9868 49.8517 18.0072 49.8517 16.9901C49.8517 15.9729 49.6357 14.9934 49.2037 14.0515C48.7988 13.1473 48.2251 12.3499 47.4827 11.6592C46.7268 10.9686 45.8697 10.4286 44.9113 10.0393C43.8989 9.64998 42.8461 9.45533 41.7527 9.45533C40.6458 9.45533 39.593 9.64998 38.5941 10.0393C37.6222 10.4286 36.7651 10.9686 36.0227 11.6592C35.2803 12.3499 34.6999 13.1473 34.2814 14.0515C33.863 14.9934 33.6538 15.9729 33.6538 16.9901ZM41.7527 4.9345C43.5075 4.9345 45.188 5.24844 46.7943 5.87634C48.3466 6.49167 49.7234 7.35189 50.9248 8.45698C52.1126 9.57463 53.0372 10.8555 53.6987 12.2997C54.3736 13.7941 54.711 15.3575 54.711 16.9901C54.711 18.6226 54.3736 20.186 53.6987 21.6804C53.0372 23.1246 52.1126 24.4055 50.9248 25.5231C49.7234 26.6282 48.3466 27.4884 46.7943 28.1038C45.188 28.7317 43.5075 29.0456 41.7527 29.0456C39.9979 29.0456 38.3174 28.7317 36.7111 28.1038C35.1588 27.4884 33.782 26.6282 32.5806 25.5231C31.3928 24.4055 30.4682 23.1246 29.8068 21.6804C29.1318 20.186 28.7944 18.6226 28.7944 16.9901C28.7944 15.3575 29.1318 13.7941 29.8068 12.2997C30.4682 10.8555 31.3928 9.57463 32.5806 8.45698C33.782 7.35189 35.1588 6.49167 36.7111 5.87634C38.3174 5.24844 39.9979 4.9345 41.7527 4.9345Z" fill="white"/>
<path d="M10.5749 0V7.06111L12.8195 5.85556L15.5963 10.3333L10.5749 13.0243V31H5.02135V16.0167L2.77678 17.2222L0 12.7444L5.02135 10.0535V0H10.5749Z" fill="white"/>
</svg>
