<svg width="70" height="82" viewBox="0 0 70 82" fill="none" xmlns="http://www.w3.org/2000/svg">
<path fill-rule="evenodd" clip-rule="evenodd" d="M25.3308 0.225062C24.0544 0.636118 22.8872 1.51262 21.2458 3.29274C18.9212 5.81415 18.5119 6.01205 14.579 6.51867C11.9221 6.86093 10.5234 7.32757 9.49095 8.21576C8.44513 9.11548 7.937 10.2649 7.53226 12.6476C6.97607 15.9206 6.73165 16.2761 3.47446 18.55C-0.342857 21.2145 -0.795058 22.7437 1.05176 26.7426C1.69441 28.1341 1.99358 29.0494 2.05917 29.8235C2.15686 30.9765 2.12692 31.077 0.759089 34.1877C-0.649511 37.3913 -0.115772 39.1679 2.89818 41.3075C6.90044 44.1488 7.09503 44.411 7.52123 47.5298C8.03232 51.2681 9.54767 52.8979 13.1261 53.5582C13.9379 53.708 14.1398 53.8088 14.0663 54.0281C14.0149 54.1816 11.6031 58.9118 8.70629 64.5395C5.80972 70.1671 3.4398 74.9542 3.4398 75.1774C3.4398 75.7321 4.03144 76.2496 4.66563 76.2496C4.95416 76.2496 7.59233 75.307 10.5281 74.1548L15.8657 72.06L18.0668 76.7387C19.2775 79.312 20.4466 81.5508 20.6648 81.7139C21.1377 82.0676 21.7916 82.0958 22.2871 81.7841C22.485 81.6595 25.3215 76.3414 28.5907 69.9658C34.0424 59.3335 34.573 58.3738 35 58.3738C35.4269 58.3738 35.9587 59.3347 41.4147 69.9683C44.6868 76.3453 47.5239 81.6636 47.7197 81.7866C48.2115 82.096 48.8671 82.0665 49.3339 81.7139C49.55 81.5508 50.7203 79.3115 51.9345 76.7375L54.1425 72.0577L59.4793 74.1536C62.4147 75.3063 65.0515 76.2496 65.339 76.2496C65.9691 76.2496 66.5629 75.7321 66.5629 75.1829C66.5629 74.9628 64.1469 70.0783 61.1938 64.3281C58.2409 58.5778 55.8721 53.8326 55.93 53.7827C55.9877 53.7329 56.5788 53.5831 57.2431 53.4498C60.5466 52.7868 61.8063 51.373 62.4623 47.5925C63.0449 44.2352 63.2763 43.9021 66.5445 41.7116C70.315 39.1846 70.8115 37.4701 68.9306 33.4724C67.5439 30.5253 67.5466 29.6726 68.9521 26.7467C70.8544 22.7868 70.2955 21.0626 66.2101 18.2882C63.3224 16.3273 63.0227 15.8852 62.4862 12.795C61.6808 8.15663 60.3865 7.07104 54.9078 6.43886C52.9878 6.21724 51.7068 5.87616 50.9241 5.37835C50.62 5.18502 49.6628 4.25854 48.7968 3.31934C45.4423 -0.317987 43.734 -0.726672 38.8421 0.937888C37.4658 1.40621 36.0446 1.77051 35.3972 1.821C34.2752 1.90843 33.8253 1.80338 29.7821 0.507854C28.3256 0.0412213 26.3008 -0.0873821 25.3308 0.225062ZM30.422 3.1965C34.222 4.51439 35.9345 4.5132 39.5312 3.19023C41.8566 2.3349 43.437 2.17462 44.3993 2.69682C44.7479 2.88592 45.5444 3.59603 46.1695 4.2748C46.7946 4.95374 47.8938 6.01154 48.6121 6.62559C49.7942 7.63628 50.0744 7.78437 51.5687 8.18882C52.4765 8.43451 53.9973 8.7112 54.9482 8.80354C58.3602 9.13513 59.4344 10.0909 59.821 13.14C60.0912 15.2693 60.7073 16.8336 61.6802 17.8602C62.1226 18.3271 63.3665 19.3241 64.4444 20.0757C67.0491 21.8921 67.3757 22.3135 67.2055 23.639C67.133 24.2034 66.7781 25.2373 66.4075 25.963C64.7763 29.1581 64.7426 30.9764 66.2598 33.9471C66.6326 34.6774 67.0369 35.7334 67.1581 36.2939C67.3609 37.2327 67.3428 37.3703 66.9262 38.046C66.6233 38.537 65.879 39.1818 64.6719 39.9983C61.0762 42.4311 60.3171 43.5555 59.8167 47.1909C59.5297 49.2742 58.9194 50.3465 57.7412 50.8372C57.2579 51.0385 56.2642 51.2764 55.5332 51.3659C50.3738 51.9974 49.3321 52.4955 46.4405 55.7148C45.694 56.5458 44.8347 57.2945 44.3426 57.5426C43.5741 57.9301 43.4159 57.9501 42.3216 57.7984C41.6685 57.7079 40.53 57.4094 39.7912 57.1347C35.7431 55.63 34.2507 55.6608 29.554 57.3464C27.9818 57.9108 26.4233 57.9602 25.5138 57.475C25.1533 57.2827 24.157 56.3575 23.3 55.4192C22.4429 54.4808 21.2907 53.4149 20.7397 53.0503C19.4933 52.2261 17.7038 51.6985 15.4842 51.5011C11.6454 51.1593 10.6173 50.323 10.186 47.1909C9.68554 43.5555 8.92648 42.4311 5.33073 39.9983C4.12362 39.1818 3.37934 38.537 3.07642 38.046C2.66007 37.3706 2.64175 37.2325 2.84422 36.2955C2.96515 35.7361 3.33502 34.7472 3.66629 34.0981C5.26574 30.9628 5.25117 29.2046 3.59815 25.9703C3.19105 25.1738 2.84619 24.1795 2.77903 23.6085C2.62737 22.3181 2.97322 21.8784 5.55821 20.0757C6.63613 19.3241 7.88008 18.3271 8.32243 17.8602C9.29538 16.8336 9.91144 15.2693 10.1817 13.14C10.4501 11.0227 11.1191 9.88744 12.4108 9.35676C12.9772 9.12395 14.0429 8.90165 15.0696 8.80202C16.0122 8.71052 17.5262 8.43451 18.4339 8.18882C19.9282 7.78437 20.2085 7.63628 21.3906 6.62559C22.1089 6.01154 23.2081 4.95374 23.8332 4.2748C24.4583 3.59603 25.2548 2.88592 25.6034 2.69682C26.5253 2.19681 27.9725 2.34677 30.422 3.1965ZM30.8653 10.4303C23.5693 11.5723 17.2046 15.7808 14.0242 21.5661C9.87047 29.1219 11.5308 37.9208 18.2455 43.9379C21.581 46.9269 25.5244 48.8035 30.4714 49.7557C32.7242 50.1893 37.5068 50.1524 39.8824 49.6829C48.9603 47.8887 55.8148 41.9443 57.7731 34.1677C57.9405 33.5024 58.1235 32.005 58.1794 30.8402C58.657 20.9097 50.4022 12.1323 38.9727 10.4176C36.9332 10.1118 32.8603 10.118 30.8653 10.4303ZM38.7753 12.7789C50.0266 14.6315 57.353 23.9935 55.077 33.6093C53.19 41.5805 45.4284 47.32 35.9861 47.7267C30.2099 47.9753 24.6377 46.1265 20.5413 42.6024C16.855 39.4312 14.8256 35.5095 14.5782 31.0792C14.2978 26.0593 16.1605 21.6359 20.0682 18.042C22.8872 15.4496 26.9724 13.4993 31.0623 12.7936C32.8 12.4937 36.9955 12.4858 38.7753 12.7789ZM34.4648 18.6442C34.1554 18.7514 33.499 19.7048 32.2271 21.8952C31.2372 23.5999 30.4051 25.0157 30.3781 25.0416C30.3511 25.0676 28.5222 25.3163 26.3136 25.5943C22.8992 26.0242 22.2463 26.1532 21.9533 26.4556C21.1934 27.2396 21.4093 27.548 24.5582 30.1766L27.5183 32.6475L26.8286 36.107C26.1519 39.5003 26.1458 39.5743 26.5029 39.9898C27.1672 40.7631 27.7364 40.6457 31.3955 38.9813C33.2491 38.138 34.8725 37.4482 35.0031 37.4482C35.1339 37.4482 36.7576 38.1345 38.6111 38.9732C42.4786 40.7231 43.0547 40.8268 43.6355 39.8773C43.8135 39.5864 43.7192 38.8041 43.1784 36.0866L42.4969 32.6626L45.4502 30.1841C48.5926 27.5468 48.8047 27.242 48.0494 26.4497C47.7536 26.1394 47.134 26.0159 43.6778 25.5788C41.4631 25.2985 39.634 25.0525 39.6132 25.032C39.5925 25.0113 38.7659 23.6006 37.7764 21.8967C36.3627 19.4619 35.8703 18.7638 35.4766 18.635C35.201 18.5449 34.9594 18.4761 34.9393 18.4818C34.9192 18.4878 34.7057 18.5608 34.4648 18.6442ZM36.3861 24.7558C37.0869 25.9758 37.8091 27.043 37.9911 27.1276C38.2757 27.2598 43.2641 27.9597 43.9211 27.9597C44.0487 27.9597 43.1575 28.8188 41.9407 29.8686C40.3173 31.2692 39.7276 31.8895 39.7262 32.1984C39.725 32.4298 39.9178 33.5906 40.1548 34.7781C40.3915 35.9653 40.5357 36.9796 40.475 37.0318C40.4144 37.0839 39.2614 36.6271 37.9129 36.0167C36.5643 35.4062 35.2564 34.9067 35.0063 34.9067C34.7561 34.9067 33.4497 35.4094 32.1032 36.0239C30.7568 36.6385 29.6015 37.0951 29.5357 37.0387C29.4701 36.9823 29.6096 35.9939 29.8455 34.8424C30.0815 33.6909 30.2745 32.5301 30.2745 32.2631C30.2745 31.871 29.8544 31.4151 28.095 29.8971L25.9155 28.0166L28.3412 27.7183C32.4835 27.2088 32.0514 27.448 33.5754 24.8173C34.3018 23.5635 34.9446 22.5377 35.0041 22.5377C35.0634 22.5377 35.6853 23.5358 36.3861 24.7558ZM18.6065 54.6284C19.2582 54.9227 20.2502 55.8153 21.4591 57.1947C23.0286 58.9858 24.5586 59.9683 26.1694 60.2195C26.8999 60.3334 29.6405 59.9366 30.3367 59.616C30.5376 59.5235 30.7497 59.4887 30.808 59.5389C30.9077 59.6246 21.9056 77.387 21.636 77.6369C21.5667 77.701 20.6725 75.9891 19.6485 73.8327C18.6246 71.6763 17.6276 69.7748 17.4328 69.6072C17.2381 69.4397 16.9072 69.3026 16.6976 69.3026C16.4879 69.3026 14.383 70.063 12.02 70.9926C9.65698 71.9221 7.70066 72.6253 7.67249 72.5555C7.64452 72.4855 9.57898 68.6179 11.9714 63.9609C14.3639 59.3037 16.4867 55.1696 16.6888 54.7738C17.0882 53.9913 17.1799 53.9844 18.6065 54.6284ZM57.7296 63.367C60.2882 68.35 62.3585 72.4796 62.3304 72.5439C62.3022 72.6085 60.3453 71.9055 57.9817 70.9819C55.6181 70.0583 53.5132 69.3026 53.3041 69.3026C53.0951 69.3026 52.7646 69.4397 52.5698 69.6072C52.375 69.7748 51.3781 71.6763 50.3541 73.8327C49.3302 75.9891 48.4358 77.701 48.3667 77.6369C48.2702 77.5474 40.5554 62.5712 39.2196 59.8803L38.9583 59.3534L40.2787 59.7714C41.1299 60.0408 42.0542 60.1961 42.8794 60.2085C45.0967 60.2416 46.604 59.402 48.8165 56.9013C49.4519 56.1832 50.3159 55.3472 50.7364 55.0435C51.5274 54.4722 52.7309 54.0144 52.9515 54.2007C53.0209 54.2594 55.171 58.3842 57.7296 63.367Z" fill="black"/>
</svg>
