<svg width="149" height="151" viewBox="0 0 149 151" fill="none" xmlns="http://www.w3.org/2000/svg">
<path d="M74.5 141.376C57.2112 141.376 40.6305 134.444 28.4055 122.106C16.1804 109.768 9.3125 93.0331 9.3125 75.584C9.3125 58.1348 16.1804 41.4004 28.4055 29.062C40.6305 16.7236 57.2112 9.79193 74.5 9.79193C91.7888 9.79193 108.369 16.7236 120.595 29.062C132.82 41.4004 139.688 58.1348 139.688 75.584C139.688 93.0331 132.82 109.768 120.595 122.106C108.369 134.444 91.7888 141.376 74.5 141.376ZM74.5 150.775C94.2586 150.775 113.208 142.853 127.179 128.752C141.151 114.651 149 95.5259 149 75.584C149 55.6421 141.151 36.517 127.179 22.416C113.208 8.31495 94.2586 0.393066 74.5 0.393066C54.7414 0.393066 35.792 8.31495 21.8205 22.416C7.84909 36.517 0 55.6421 0 75.584C0 95.5259 7.84909 114.651 21.8205 128.752C35.792 142.853 54.7414 150.775 74.5 150.775Z" fill="#07C93C"/>
<path d="M102.157 47.1039C102.09 47.1688 102.028 47.2378 101.97 47.3107L69.628 88.9006L50.1369 69.2194C48.8129 67.9743 47.0617 67.2964 45.2523 67.3286C43.4428 67.3608 41.7164 68.1006 40.4368 69.3922C39.1571 70.6837 38.4241 72.4261 38.3922 74.2523C38.3603 76.0785 39.0319 77.8459 40.2656 79.1822L64.9065 104.061C65.5703 104.73 66.3608 105.257 67.2308 105.61C68.1007 105.964 69.0324 106.137 69.9701 106.12C70.9079 106.102 71.8326 105.894 72.6889 105.508C73.5453 105.122 74.3159 104.566 74.9547 103.873L112.13 56.9727C113.396 55.6318 114.088 53.8419 114.057 51.9901C114.026 50.1382 113.273 48.3732 111.963 47.0766C110.653 45.78 108.889 45.056 107.054 45.0611C105.219 45.0662 103.46 45.8 102.157 47.1039Z" fill="#07C93C"/>
</svg>
