<svg width="100" height="100" viewBox="0 0 100 100" fill="none" xmlns="http://www.w3.org/2000/svg">
<path fill-rule="evenodd" clip-rule="evenodd" d="M50.5835 14.5559C50.7054 14.6285 51.6303 16.3453 52.6389 18.3714L54.4725 22.055L58.4771 22.63C61.9742 23.132 62.5235 23.2464 62.814 23.533C63.5283 24.2376 63.3888 24.456 60.184 27.646L57.2216 30.5951L57.903 34.5514C58.2777 36.7273 58.5416 38.6422 58.4893 38.8067C58.3482 39.2518 57.7435 39.592 57.2697 39.493C57.0471 39.4466 55.3407 38.6071 53.4777 37.6274C51.6145 36.6478 50.0394 35.8463 49.9773 35.8463C49.9153 35.8463 48.2886 36.6777 46.3624 37.6938C44.4362 38.7099 42.6993 39.5413 42.5028 39.5413C42.0833 39.5413 41.4188 38.9318 41.4222 38.5503C41.4237 38.4044 41.5509 37.5886 41.7052 36.7374C41.9234 35.5331 42.0577 35.1314 42.3103 34.9268C43.0164 34.355 44.0802 34.8698 44.0802 35.7832C44.0802 36.0618 44.1187 36.2897 44.1657 36.2897C44.2127 36.2897 45.466 35.6578 46.951 34.8856C48.4359 34.1133 49.8046 33.4815 49.9923 33.4815C50.18 33.4815 51.5593 34.1189 53.0574 34.898C54.5553 35.6771 55.8165 36.2791 55.8598 36.2357C55.9031 36.1924 55.7 34.783 55.4086 33.1036C54.9399 30.4032 54.9021 30.0048 55.0816 29.6576C55.1934 29.4417 56.2634 28.3376 57.4597 27.2042C59.2767 25.4827 59.5893 25.1257 59.3584 25.0353C59.2063 24.9757 57.8183 24.7522 56.2738 24.5385C54.6025 24.3072 53.3227 24.0576 53.1126 23.9216C52.884 23.7735 52.287 22.711 51.4162 20.9017C50.6772 19.3664 50.0363 18.1102 49.9923 18.1102C49.9482 18.1102 49.3074 19.3664 48.5684 20.9017C47.6975 22.711 47.1006 23.7735 46.8719 23.9216C46.6619 24.0576 45.3821 24.3072 43.7108 24.5385C42.1662 24.7522 40.7779 24.9759 40.6257 25.0354C40.3944 25.126 40.719 25.4949 42.6008 27.2804C43.8393 28.4555 44.9101 29.567 44.9804 29.7503C45.1552 30.2065 44.7879 32.0732 44.4496 32.447C44.0797 32.8558 43.2945 32.8372 42.8903 32.4099C42.6246 32.1291 42.5888 31.9608 42.6609 31.328L42.7464 30.5787L39.7923 27.6379C36.5943 24.4546 36.4582 24.2408 37.1719 23.5271C37.4668 23.2323 37.9721 23.1273 41.5076 22.6267L45.5095 22.0599L47.3444 18.3729C48.3536 16.3449 49.2914 14.6248 49.4283 14.5505C49.7407 14.3808 50.293 14.3833 50.5835 14.5559ZM29.216 17.5075C29.3574 17.6639 29.5095 18.0629 29.5538 18.3943C29.632 18.9766 29.6533 18.997 30.1836 18.997C30.8472 18.997 31.2708 19.4001 31.2708 20.0316C31.2708 20.6177 30.8752 21.0238 30.1916 21.1394C29.6885 21.2244 29.6226 21.2876 29.546 21.7597C29.4295 22.4768 29.0661 22.8398 28.4644 22.8398C27.817 22.8398 27.3788 22.4 27.3788 21.7503C27.3788 21.2828 27.342 21.246 26.7855 21.157C26.0629 21.0414 25.6052 20.616 25.6052 20.0599C25.6052 19.4283 25.9265 19.1071 26.6555 19.0097C27.294 18.9246 27.3064 18.9122 27.3915 18.2737C27.4428 17.89 27.5904 17.5424 27.7523 17.4238C28.1525 17.1312 28.9147 17.1748 29.216 17.5075ZM75.3361 23.1881C75.4979 23.3066 75.6456 23.6542 75.6969 24.0379C75.782 24.6764 75.7944 24.6888 76.4329 24.774C77.1619 24.8714 77.4832 25.1925 77.4832 25.8241C77.4832 26.3803 77.0254 26.8056 76.3028 26.9212C75.7464 27.0102 75.7096 27.047 75.7096 27.5145C75.7096 28.1642 75.2713 28.6041 74.624 28.6041C74.0223 28.6041 73.6588 28.2411 73.5424 27.5239C73.4658 27.0519 73.3999 26.9886 72.8968 26.9036C72.2116 26.7877 71.8521 26.4178 71.8348 25.8103C71.8165 25.167 72.2303 24.7613 72.9048 24.7613C73.4351 24.7613 73.4563 24.7409 73.5345 24.1585C73.5789 23.8272 73.731 23.4281 73.8724 23.2717C74.1736 22.939 74.9358 22.8954 75.3361 23.1881ZM23.9121 25.7153C24.1609 25.9641 24.275 26.2428 24.275 26.6021C24.275 27.1036 24.2974 27.1261 24.7989 27.1261C25.4351 27.1261 26.0486 27.6704 26.0486 28.2346C26.0486 28.7987 25.4351 29.3431 24.7989 29.3431C24.2974 29.3431 24.275 29.3655 24.275 29.867C24.275 30.5032 23.7306 31.1167 23.1665 31.1167C22.6023 31.1167 22.058 30.5032 22.058 29.867C22.058 29.3655 22.0355 29.3431 21.534 29.3431C20.8979 29.3431 20.2844 28.7987 20.2844 28.2346C20.2844 27.6704 20.8979 27.1261 21.534 27.1261C22.0355 27.1261 22.058 27.1036 22.058 26.6021C22.058 25.966 22.6023 25.3525 23.1665 25.3525C23.3771 25.3525 23.7126 25.5158 23.9121 25.7153ZM75.2554 33.2837C75.4763 33.4383 76.2523 34.8602 77.353 37.1265C78.3137 39.105 79.1359 40.7237 79.1801 40.7237C79.5184 40.7237 86.5395 41.7901 86.9533 41.9043C87.5612 42.0722 87.9111 42.5946 87.776 43.1329C87.7252 43.3349 86.4007 44.7669 84.7838 46.3679L81.8828 49.2403L82.5783 53.2797C83.2736 57.3161 83.2738 57.3193 82.9874 57.7047C82.4281 58.4571 82.0728 58.3544 78.1991 56.3198L74.6489 54.4551L71.1238 56.3097C68.8382 57.5119 67.4394 58.1642 67.1462 58.1642C66.612 58.1642 66.1024 57.7129 66.1028 57.2404C66.103 57.0574 66.4042 55.1786 66.7722 53.0651L67.4413 49.2222L64.4803 46.3401C62.0116 43.9372 61.5194 43.3889 61.52 43.0418C61.5216 42.0765 61.8417 41.9097 64.3988 41.5406C65.9553 41.3159 66.0357 41.3176 66.3941 41.5841C66.649 41.7734 66.7821 42.0304 66.813 42.3927C66.8711 43.0727 66.4977 43.4641 65.6557 43.6064L65.0298 43.7121L67.3398 46.0255C69.397 48.0858 69.6497 48.3928 69.6497 48.8318C69.6497 49.1028 69.4474 50.526 69.2 51.9942C68.9527 53.4623 68.7697 54.7402 68.7935 54.8338C68.8185 54.9319 69.9944 54.3922 71.5711 53.559C73.075 52.7643 74.4513 52.1117 74.6297 52.1092C74.8081 52.1066 76.2048 52.7662 77.7335 53.5751C79.2622 54.384 80.5319 54.9928 80.5548 54.9281C80.5777 54.8633 80.3589 53.4372 80.0685 51.7589C79.6375 49.2669 79.5729 48.6463 79.7164 48.3736C79.8132 48.19 80.8824 47.0834 82.0926 45.9145C83.3028 44.7455 84.2721 43.7683 84.2465 43.7427C84.221 43.7173 82.8307 43.4944 81.1572 43.2477C79.4837 43.0009 78.0017 42.7557 77.8638 42.7028C77.7259 42.65 76.943 41.2685 76.124 39.6329L74.6349 36.6592L73.3198 39.3894C72.5964 40.8909 71.8647 42.2682 71.6938 42.4502C71.356 42.8098 70.3355 43.0335 69.7282 42.8812C68.7876 42.6451 68.7762 41.194 69.7123 40.8555C70.1512 40.6968 70.3505 40.3654 72.0199 37.0181C73.8131 33.4224 74.0742 33.0381 74.723 33.0381C74.8229 33.0381 75.0625 33.1486 75.2554 33.2837ZM25.8338 33.2051C26.0264 33.2987 26.8041 34.6911 27.9746 37.0379C28.9855 39.0651 29.8283 40.7237 29.8474 40.7237C30.1783 40.7237 37.2171 41.7985 37.6116 41.9094C38.2177 42.0796 38.4638 42.4064 38.4638 43.0414C38.4638 43.3872 37.9669 43.9407 35.5032 46.3395L32.5426 49.2222L33.212 53.0651C33.5802 55.1786 33.8816 57.0574 33.8817 57.2404C33.8822 57.7131 33.3725 58.1642 32.8382 58.1642C32.5449 58.1642 31.1425 57.5112 28.8535 56.3088L25.3214 54.4535L21.7758 56.3187C17.9083 58.3534 17.5552 58.4556 16.9968 57.7042C16.7101 57.3183 16.7101 57.317 17.4085 53.2819L18.1071 49.2456L15.2034 46.3706C13.5849 44.768 12.2594 43.3351 12.2085 43.1329C12.0817 42.6272 12.4119 42.0885 12.9542 41.9169C13.2058 41.8372 14.8749 41.5666 16.6633 41.3154C18.4516 41.0642 20.1382 40.8195 20.4113 40.7717C20.8957 40.6869 20.9498 40.5981 22.6446 37.106C24.6053 33.0657 24.8731 32.7383 25.8338 33.2051ZM23.8412 39.6699C22.9978 41.355 22.2603 42.6493 22.1107 42.7066C21.9674 42.7617 20.4886 43.0037 18.8244 43.2444C17.1603 43.4852 15.7745 43.7062 15.7451 43.7356C15.7157 43.7652 16.6817 44.7455 17.8919 45.9145C19.1021 47.0834 20.1713 48.19 20.2681 48.3736C20.4116 48.6463 20.347 49.2669 19.916 51.7589C19.6256 53.4372 19.4069 54.8605 19.4298 54.9219C19.4527 54.9834 20.7182 54.3744 22.242 53.5689C23.7658 52.7634 25.1531 52.1044 25.325 52.1044C25.4967 52.1044 26.893 52.7695 28.4279 53.5824C29.9626 54.3953 31.2385 55.0604 31.2628 55.0604C31.2871 55.0604 31.0917 53.8134 30.8285 52.2891C30.1082 48.1186 29.9312 48.7348 32.6204 46.0499C33.8776 44.7946 34.8868 43.7484 34.8633 43.7249C34.8398 43.7014 33.4323 43.4812 31.7355 43.2359C29.2164 42.8714 28.5912 42.7338 28.3271 42.4856C28.1493 42.3186 27.4166 40.9559 26.6991 39.4575C25.9813 37.9591 25.3755 36.7331 25.3526 36.7331C25.3297 36.7331 24.6497 38.0546 23.8412 39.6699ZM80.8047 60.7294C80.9665 60.8479 81.1142 61.1956 81.1655 61.5793C81.2506 62.2178 81.263 62.2302 81.9015 62.3153C82.6506 62.4154 82.9518 62.7345 82.9518 63.4287C82.9518 64.0314 82.3807 64.5196 81.6755 64.5196C81.1971 64.5196 81.1782 64.5413 81.1782 65.0879C81.1782 65.7719 80.783 66.1946 80.1436 66.1946C79.553 66.1946 79.1511 65.7978 79.0329 65.0976C78.9467 64.5876 78.8868 64.5196 78.5247 64.5196C77.8845 64.5196 77.3354 64.0029 77.3354 63.4003C77.3354 62.7377 77.7696 62.3026 78.4309 62.3026C78.9062 62.3026 78.9411 62.2677 79.0377 61.6957C79.0941 61.362 79.2662 60.9629 79.4202 60.8089C79.7473 60.4818 80.4136 60.4436 80.8047 60.7294ZM65.4781 60.8632C65.6509 61.0469 66.5567 62.7596 67.4911 64.669L69.1902 68.1407L73.2942 68.7547C76.9419 69.3002 77.4276 69.4049 77.6625 69.6947C78.2553 70.4269 78.1328 70.609 74.9511 73.7214L71.9658 76.6418L72.6488 80.6387C73.1352 83.486 73.293 84.7372 73.1975 84.9886C73.0474 85.3836 72.6304 85.6551 72.1742 85.6551C72.0075 85.6551 70.4898 84.9292 68.802 84.042C67.1141 83.1549 65.4937 82.316 65.2014 82.1779L64.6698 81.9268L61.1262 83.791C59.1773 84.8162 57.4163 85.6551 57.2126 85.6551C56.7491 85.6551 56.1992 85.0868 56.2023 84.611C56.2034 84.413 56.5005 82.555 56.8622 80.4821L57.5198 76.7131L54.5689 73.7874C51.92 71.1612 51.6181 70.8119 51.6181 70.374C51.6181 69.469 51.8316 69.3935 56.246 68.7377L60.2644 68.1407L62.038 64.5432C63.0135 62.5646 63.9408 60.8519 64.0985 60.7374C64.5227 60.4294 65.1219 60.4839 65.4781 60.8632ZM35.8435 60.6904C36.235 60.9183 37.4292 63.3929 37.4292 63.9764C37.4292 64.6099 37.0454 64.963 36.3568 64.963C35.9611 64.963 35.7481 64.8653 35.5251 64.5818L35.2254 64.2008L33.8161 67.0162C32.9785 68.6898 32.2714 69.9192 32.0729 70.0472C31.8892 70.1657 30.5086 70.4353 29.0046 70.6461C27.5007 70.8568 26.1127 71.0644 25.92 71.1072C25.6064 71.177 25.8099 71.4164 27.8701 73.3999C29.1351 74.6181 30.2104 75.7408 30.2591 75.8948C30.3081 76.0489 30.1124 77.5535 29.8242 79.2386C29.5359 80.9235 29.3002 82.3491 29.3002 82.4063C29.3002 82.4635 30.5472 81.8554 32.0715 81.0549C33.5956 80.2546 35.0224 79.5987 35.2421 79.5975C35.4657 79.5963 36.8207 80.2197 38.3196 81.0134C39.7926 81.7933 41.0382 82.3909 41.0877 82.3414C41.1374 82.2919 40.9651 81.0053 40.7049 79.4822C40.4448 77.9592 40.2333 76.4926 40.2348 76.2232C40.2371 75.7863 40.4875 75.4902 42.5424 73.4936C44.4508 71.6394 44.8005 71.2359 44.5746 71.1487C44.4246 71.0908 43.0383 70.8651 41.4937 70.647C39.9492 70.4288 38.5688 70.1889 38.4261 70.1137C38.0915 69.9374 37.2814 68.3351 37.2814 67.8494C37.2814 66.9367 38.6317 66.5134 39.1589 67.2609C39.8537 68.2456 39.6127 68.1675 43.7625 68.7536C48.0927 69.3654 48.3665 69.461 48.3665 70.3632C48.3665 70.8187 48.0967 71.1317 45.4152 73.7888L42.4639 76.7131L43.1219 80.4821C43.4839 82.555 43.7811 84.4223 43.7823 84.6317C43.7852 85.0985 43.224 85.6551 42.7506 85.6551C42.5582 85.6551 40.813 84.8237 38.8724 83.8076C36.9317 82.7914 35.2944 81.9601 35.2337 81.9601C35.1729 81.9601 33.5404 82.7914 31.6057 83.8076C29.6712 84.8237 27.9576 85.6551 27.7978 85.6551C27.3534 85.6551 26.9358 85.3797 26.787 84.9886C26.6915 84.7372 26.8492 83.487 27.3352 80.6424L28.0174 76.6491L25.033 73.7252C21.8038 70.5611 21.6734 70.3593 22.3919 69.6409C22.6869 69.3459 23.1934 69.2408 26.7492 68.7374L30.7727 68.1676L32.4843 64.6808C33.4256 62.7631 34.3364 61.0445 34.5081 60.8615C34.8383 60.5098 35.4079 60.4368 35.8435 60.6904ZM61.5602 70.1103C61.4165 70.1848 60.0353 70.4253 58.4908 70.6447C56.9463 70.8642 55.5604 71.0908 55.4111 71.1485C55.1869 71.2348 55.5409 71.6443 57.4433 73.4994C59.4836 75.4886 59.7474 75.8011 59.7498 76.2294C59.7512 76.4954 59.5397 77.9592 59.2796 79.4822C59.0195 81.0053 58.8464 82.291 58.895 82.3396C58.9435 82.3881 60.1847 81.7905 61.6531 81.0116C63.1215 80.2326 64.498 79.5953 64.7119 79.5953C64.9259 79.5953 66.3572 80.2522 67.8927 81.0552C69.428 81.8581 70.6843 82.4672 70.6843 82.4086C70.6843 82.3501 70.4486 80.9235 70.1604 79.2386C69.8722 77.5535 69.6762 76.0497 69.7248 75.8964C69.7735 75.7433 70.8465 74.62 72.1093 73.4003C74.1515 71.4279 74.3671 71.1743 74.0598 71.106C73.8697 71.0639 72.4838 70.8568 70.9799 70.6461C69.4759 70.4353 68.0953 70.1657 67.9116 70.0472C67.713 69.919 67.0022 68.6821 66.1565 66.9924L64.7354 64.153L63.2784 67.0641C62.4771 68.6651 61.7038 70.036 61.5602 70.1103ZM82.6562 70.5794C82.8355 70.7587 82.9518 71.072 82.9518 71.3755C82.9518 71.8552 82.9794 71.8802 83.6147 71.9754C84.3488 72.0855 84.7254 72.4656 84.7254 73.0966C84.7254 73.6958 84.3927 74.0181 83.6751 74.1139C83.0366 74.1991 83.0242 74.2115 82.9391 74.85C82.8396 75.5953 82.5199 75.9002 81.838 75.9002C81.2416 75.9002 80.8802 75.5016 80.7768 74.7294C80.6986 74.147 80.6773 74.1266 80.147 74.1266C79.4628 74.1266 79.109 73.7653 79.109 73.0663C79.109 72.4432 79.4233 72.1201 80.1634 71.9828C80.6375 71.8948 80.7104 71.822 80.7852 71.3608C80.8317 71.0734 80.9828 70.7136 81.1208 70.5611C81.458 70.1885 82.275 70.1982 82.6562 70.5794ZM19.1368 74.6809C19.2626 74.8231 19.4118 75.2223 19.4684 75.5677C19.5683 76.1769 19.5881 76.1958 20.1267 76.1958C20.8178 76.1958 21.1712 76.5546 21.1712 77.2562C21.1712 77.8824 20.8565 78.2024 20.1033 78.3422C19.6131 78.4332 19.5423 78.5032 19.4565 78.9829C19.3278 79.7023 19.0062 80.0387 18.4469 80.0387C17.775 80.0387 17.3826 79.6986 17.2746 79.0225C17.1875 78.4785 17.1411 78.4322 16.5889 78.3388C15.9031 78.2231 15.5547 77.8214 15.5547 77.1465C15.5547 76.5513 15.9548 76.1958 16.625 76.1958C17.1334 76.1958 17.1587 76.1707 17.2576 75.5677C17.3952 74.7285 17.6906 74.4222 18.363 74.4222C18.6968 74.4222 18.997 74.5226 19.1368 74.6809Z" fill="black"/>
</svg>
