<svg width="149" height="149" viewBox="0 0 149 149" fill="none" xmlns="http://www.w3.org/2000/svg">
<g clip-path="url(#clip0_231_2941)">
<path d="M74.5 139.688C57.2112 139.688 40.6305 132.82 28.4055 120.595C16.1804 108.369 9.3125 91.7888 9.3125 74.5C9.3125 57.2112 16.1804 40.6305 28.4055 28.4055C40.6305 16.1804 57.2112 9.3125 74.5 9.3125C91.7888 9.3125 108.369 16.1804 120.595 28.4055C132.82 40.6305 139.688 57.2112 139.688 74.5C139.688 91.7888 132.82 108.369 120.595 120.595C108.369 132.82 91.7888 139.688 74.5 139.688ZM74.5 149C94.2586 149 113.208 141.151 127.179 127.179C141.151 113.208 149 94.2586 149 74.5C149 54.7414 141.151 35.792 127.179 21.8205C113.208 7.84909 94.2586 0 74.5 0C54.7414 0 35.792 7.84909 21.8205 21.8205C7.84909 35.792 0 54.7414 0 74.5C0 94.2586 7.84909 113.208 21.8205 127.179C35.792 141.151 54.7414 149 74.5 149Z" fill="#E11A22"/>
<path d="M43.2659 43.2659C43.6984 42.8323 44.2122 42.4882 44.7779 42.2535C45.3436 42.0188 45.9501 41.8979 46.5625 41.8979C47.175 41.8979 47.7814 42.0188 48.3471 42.2535C48.9128 42.4882 49.4266 42.8323 49.8591 43.2659L74.5 67.9161L99.1409 43.2659C99.5738 42.833 100.088 42.4896 100.653 42.2553C101.219 42.021 101.825 41.9004 102.438 41.9004C103.05 41.9004 103.656 42.021 104.222 42.2553C104.787 42.4896 105.301 42.833 105.734 43.2659C106.167 43.6988 106.51 44.2128 106.745 44.7784C106.979 45.344 107.1 45.9503 107.1 46.5625C107.1 47.1748 106.979 47.781 106.745 48.3466C106.51 48.9123 106.167 49.4262 105.734 49.8591L81.084 74.5L105.734 99.1409C106.167 99.5738 106.51 100.088 106.745 100.653C106.979 101.219 107.1 101.825 107.1 102.438C107.1 103.05 106.979 103.656 106.745 104.222C106.51 104.787 106.167 105.301 105.734 105.734C105.301 106.167 104.787 106.51 104.222 106.745C103.656 106.979 103.05 107.1 102.438 107.1C101.825 107.1 101.219 106.979 100.653 106.745C100.088 106.51 99.5738 106.167 99.1409 105.734L74.5 81.084L49.8591 105.734C49.4262 106.167 48.9123 106.51 48.3466 106.745C47.781 106.979 47.1748 107.1 46.5625 107.1C45.9503 107.1 45.344 106.979 44.7784 106.745C44.2128 106.51 43.6988 106.167 43.2659 105.734C42.833 105.301 42.4896 104.787 42.2553 104.222C42.021 103.656 41.9004 103.05 41.9004 102.438C41.9004 101.825 42.021 101.219 42.2553 100.653C42.4896 100.088 42.833 99.5738 43.2659 99.1409L67.9161 74.5L43.2659 49.8591C42.8323 49.4266 42.4882 48.9128 42.2535 48.3471C42.0188 47.7814 41.8979 47.175 41.8979 46.5625C41.8979 45.9501 42.0188 45.3436 42.2535 44.7779C42.4882 44.2122 42.8323 43.6984 43.2659 43.2659Z" fill="#E11A22"/>
</g>
<defs>
<clipPath id="clip0_231_2941">
<rect width="149" height="149" fill="white"/>
</clipPath>
</defs>
</svg>
