<svg width="577" height="509" viewBox="0 0 577 509" fill="none" xmlns="http://www.w3.org/2000/svg">
<circle cx="137.5" cy="95.5" r="65.5" fill="#3B85F2"/>
<circle cx="553" cy="382" r="24" fill="#3B85F2"/>
<path d="M355.178 5.01659L357.248 23.1807L375.162 26.8254L358.527 34.4067L360.596 52.5708L348.246 39.0922L331.61 46.6734L340.612 30.7619L328.261 17.2833L346.176 20.9281L355.178 5.01659Z" fill="#F6C546"/>
<circle cx="345.5" cy="393.5" r="33.5" fill="#F6C546"/>
<ellipse cx="146" cy="467.5" rx="29" ry="29.5" fill="#14CD46"/>
<path d="M35.1085 262L89.5132 300.806L28.7035 328.519L35.1085 262Z" fill="#F6C546"/>
<path d="M537.984 126.623L514.675 108.737L524.482 81.0413L553.853 81.8104L562.198 109.981L537.984 126.623Z" fill="#3B85F2"/>
<rect x="463.505" y="196" width="64.8632" height="64.8632" transform="rotate(17.5 463.505 196)" fill="#14CD46"/>
<rect x="454.325" y="474" width="25.8424" height="25.8424" transform="rotate(64.5 454.325 474)" fill="#14CD46"/>
</svg>
