<svg width="82" height="82" viewBox="0 0 82 82" fill="none" xmlns="http://www.w3.org/2000/svg">
<path fill-rule="evenodd" clip-rule="evenodd" d="M58.8833 1.01524C60.5276 1.68186 62.1624 2.64581 62.5149 3.15734C62.8665 3.66888 67.1937 6.61212 72.1294 9.69847C85.2962 17.931 85.2943 19.4236 72.0988 27.6741L63.0929 33.3053L56.8922 44.2412C48.5178 59.0097 48.128 59.301 36.2319 59.6712L26.7521 59.965V69.1607C26.7521 77.6648 26.5859 78.4968 24.5412 80.2199C21.6721 82.6362 18.0615 82.5891 15.4532 80.1C13.5834 78.3152 13.3761 77.1858 13.3761 68.8111V59.5058L11.1652 61.3694C8.13264 63.9245 4.42747 63.7651 1.98061 60.9744C0.891418 59.7328 0 57.948 0 57.0081C0 54.89 15.8 40.2294 18.8134 39.5517C20.001 39.2843 22.9944 39.6828 25.4661 40.4385C27.9368 41.1934 30.3159 41.8112 30.7525 41.8112C31.1901 41.8112 32.9022 39.3477 34.558 36.3359L37.5686 30.8607L33.8319 27.9817C21.932 18.811 21.9358 17.9173 33.9179 9.95638C48.7767 0.0847088 52.9224 -1.4002 58.8833 1.01524ZM48.2063 5.35685C43.4664 9.60678 46.8248 16.9628 53.5042 16.9628C57.432 16.9628 61.1477 13.6305 61.1477 10.108C61.1477 6.58556 57.432 3.25331 53.5042 3.25331C51.643 3.25331 49.6844 4.03046 48.2063 5.35685ZM34.1567 14.1652C31.1347 16.2302 28.6582 18.1863 28.6515 18.5119C28.6458 18.8384 31.7099 21.6171 35.4618 24.688L42.2827 30.2704L37.8523 38.1833C35.415 42.5352 33.1334 46.0954 32.7818 46.0954C32.4302 46.0954 29.1999 45.2454 25.6037 44.2069L19.0657 42.3184L11.4126 49.1337C6.16731 53.8052 3.84466 56.4854 4.03001 57.6541C4.58512 61.1655 7.72849 60.1116 14.3936 54.1797L20.902 48.3874L29.6175 52.3829C39.1326 56.7442 42.941 57.2823 45.8474 54.6758C46.8907 53.7401 50.4975 48.0481 53.8616 42.0262L59.9792 31.0784L69.1618 25.281C74.2132 22.0918 78.3455 19.128 78.3455 18.6944C78.3455 17.9173 66.7217 10.108 65.5646 10.108C63.6863 10.108 65.4615 13.6691 68.3134 15.6192C70.1526 16.8771 71.6574 18.2694 71.6574 18.7116C71.6574 19.1546 69.6147 20.8605 67.1191 22.5022C62.62 25.4635 62.4948 25.4892 52.4819 25.5098L42.383 25.5312L38.4332 22.4997C36.2615 20.8314 34.686 19.0003 34.9325 18.4297C35.179 17.8582 36.8787 16.4735 38.7103 15.3528C40.9747 13.9664 42.039 12.6486 42.039 11.2322C42.039 8.81678 41.9158 8.86219 34.1567 14.1652ZM41.868 17.53C40.2275 18.8615 40.217 19.0577 41.7018 20.5289C43.0384 21.8536 44.7486 22.0995 52.458 22.0755C60.2486 22.0507 61.976 21.7851 63.9633 20.3019C65.8914 18.8624 66.0586 18.4203 64.9188 17.7742C64.1583 17.3432 63.3213 17.1007 63.0585 17.2361C56.0868 20.8186 49.9854 21.0422 46.4226 17.847C44.0789 15.7461 44.0674 15.7452 41.868 17.53ZM60.9117 51.0222C59.0037 57.8341 57.8906 64.4146 57.4702 71.3722C56.9667 79.693 56.575 81.6543 55.4151 81.6543C54.2714 81.6543 53.9265 80.1402 53.7058 74.1569L53.4297 66.6596H43.9499H34.4701L34.194 74.1569C33.9733 80.1402 33.6284 81.6543 32.4847 81.6543C31.3019 81.6543 31.0516 80.0837 31.0516 72.6574V63.6606L42.5703 63.4215L54.0889 63.1825L55.3014 57.9163C56.3132 53.5259 62.32 40.9543 63.4073 40.9543C63.5859 40.9543 62.4624 45.4844 60.9117 51.0222ZM18.7494 54.5464C17.3812 55.9019 17.1796 57.8067 17.407 67.1848L17.6755 78.2269H20.0641H22.4527L22.9304 67.5164L23.4081 56.8059L26.1683 56.5231L28.9276 56.2404L26.1683 54.6578C22.5922 52.6074 20.7338 52.5799 18.7494 54.5464Z" fill="black"/>
</svg>
