<svg width="24" height="24" viewBox="0 0 24 24" fill="none" xmlns="http://www.w3.org/2000/svg">
<path d="M14.7276 11.6953L16.7174 9.97266L17.9357 11.0273L14.7276 13.8047L12.3858 11.7773L13.6041 10.7227L14.7276 11.6953ZM3.46531 18H10.3959V19.5H3.46531V18ZM10.3959 7.5H3.46531V6H10.3959V7.5ZM10.3959 13.5H3.46531V12H10.3959V13.5ZM17.9357 5.02734L14.7276 7.80469L12.3858 5.77734L13.6041 4.72266L14.7276 5.69531L16.7174 3.97266L17.9357 5.02734ZM12.1692 22.5L13.9019 24H0V0H20.7919V15.0352L19.0592 16.5352V1.5H1.73266V22.5H12.1692ZM24 17.0273L16.4602 23.5664L12.819 20.4023L14.0372 19.3477L16.4602 21.4336L22.7817 15.9727L24 17.0273Z" fill="#767D87"/>
</svg>
