<svg width="24" height="24" viewBox="0 0 24 24" fill="none" xmlns="http://www.w3.org/2000/svg">
<path d="M12 0C11.5502 -7.82269e-09 11.1048 0.103401 10.6893 0.304299C10.2737 0.505197 9.89611 0.799657 9.57806 1.17087C9.26 1.54208 9.00771 1.98277 8.83558 2.46778C8.66345 2.95279 8.57486 3.47262 8.57486 3.99759C8.57486 4.52257 8.66345 5.0424 8.83558 5.52741C9.00771 6.01242 9.26 6.45311 9.57806 6.82432C9.89611 7.19553 10.2737 7.48999 10.6893 7.69089C11.1048 7.89179 11.5502 7.99519 12 7.99519C12.9084 7.99519 13.7796 7.57402 14.4219 6.82432C15.0643 6.07463 15.4251 5.05782 15.4251 3.99759C15.4251 2.93737 15.0643 1.92056 14.4219 1.17087C13.7796 0.421174 12.9084 0 12 0ZM19.7143 1.9968C19.0323 1.9968 18.3782 2.31299 17.896 2.87583C17.4138 3.43866 17.1429 4.20203 17.1429 4.99799C17.1429 5.79396 17.4138 6.55733 17.896 7.12016C18.3782 7.68299 19.0323 7.99919 19.7143 7.99919C20.3963 7.99919 21.0503 7.68299 21.5326 7.12016C22.0148 6.55733 22.2857 5.79396 22.2857 4.99799C22.2857 4.20203 22.0148 3.43866 21.5326 2.87583C21.0503 2.31299 20.3963 1.9968 19.7143 1.9968ZM4.28571 1.9968C3.60373 1.9968 2.94968 2.31299 2.46744 2.87583C1.9852 3.43866 1.71429 4.20203 1.71429 4.99799C1.71429 5.79396 1.9852 6.55733 2.46744 7.12016C2.94968 7.68299 3.60373 7.99919 4.28571 7.99919C4.9677 7.99919 5.62175 7.68299 6.10399 7.12016C6.58623 6.55733 6.85714 5.79396 6.85714 4.99799C6.85714 4.20203 6.58623 3.43866 6.10399 2.87583C5.62175 2.31299 4.9677 1.9968 4.28571 1.9968ZM6.85714 11.9868C6.86031 11.4586 7.04232 10.9532 7.36347 10.581C7.68462 10.2089 8.11884 9.99998 8.57143 9.99999H15.4286C15.8832 9.99999 16.3193 10.2108 16.6408 10.586C16.9622 10.9612 17.1429 11.4701 17.1429 12.0008V18.0032C17.1427 18.6329 17.0583 19.2587 16.8926 19.8579C16.513 21.2159 15.731 22.3714 14.6872 23.117C13.6433 23.8626 12.4059 24.1495 11.1971 23.9261C9.98829 23.7027 8.88734 22.9836 8.09191 21.8981C7.29648 20.8125 6.85869 19.4316 6.85714 18.0032V11.9868ZM5.14286 12.0008C5.14286 11.2705 5.30914 10.5882 5.60229 9.99999H1.71429C1.25963 9.99999 0.823594 10.2108 0.502103 10.586C0.180612 10.9612 2.3728e-07 11.4701 2.3728e-07 12.0008V17.0028C-0.000233225 17.8217 0.171816 18.6282 0.501039 19.3514C0.830262 20.0746 1.30659 20.6924 1.88819 21.1505C2.46978 21.6086 3.13886 21.8931 3.83667 21.9789C4.53447 22.0647 5.23965 21.9492 5.89029 21.6426C5.39688 20.5153 5.14066 19.2671 5.14286 18.0012V12.0008ZM18.8571 12.0008V18.0032C18.8571 19.3137 18.588 20.5502 18.1097 21.6426C18.7603 21.9492 19.4655 22.0647 20.1633 21.9789C20.8611 21.8931 21.5302 21.6086 22.1118 21.1505C22.6934 20.6924 23.1697 20.0746 23.499 19.3514C23.8282 18.6282 24.0002 17.8217 24 17.0028V12.0008C24 11.4701 23.8194 10.9612 23.4979 10.586C23.1764 10.2108 22.7404 9.99999 22.2857 9.99999H18.3977C18.6891 10.5882 18.8571 11.2705 18.8571 12.0008Z" fill="#767D87"/>
</svg>
