<svg width="108" height="64" viewBox="0 0 108 64" fill="none" xmlns="http://www.w3.org/2000/svg">
<path d="M108 64H97.2896V37.3333C97.2896 34.9333 96.8284 32.6222 95.9061 30.4C94.9838 28.2963 93.7045 26.4148 92.0682 24.7556C90.4021 23.1259 88.5129 21.8519 86.4006 20.9333C84.1693 20.0148 81.8487 19.5556 79.4388 19.5556C76.5232 19.5556 73.7712 20.2222 71.1828 21.5556C68.6837 22.8593 66.616 24.6519 64.9797 26.9333C66.2887 30.2519 66.9433 33.7185 66.9433 37.3333V64H56.2328V37.3333C56.2328 33.4815 55.1023 30.0148 52.8412 26.9333C51.2049 24.6519 49.1372 22.8593 46.6381 21.5556C44.0497 20.2222 41.2977 19.5556 38.3821 19.5556C35.9722 19.5556 33.6516 20.0148 31.4203 20.9333C29.2782 21.8519 27.389 23.1259 25.7527 24.7556C24.1164 26.4148 22.8371 28.2963 21.9148 30.4C20.9925 32.6222 20.5313 34.9333 20.5313 37.3333V64H9.82089V37.3333C9.82089 33.4815 10.5647 29.7926 12.0522 26.2667C13.51 22.8593 15.548 19.837 18.1661 17.2C20.814 14.5926 23.8486 12.563 27.27 11.1111C30.8104 9.62963 34.5144 8.88889 38.3821 8.88889C42.339 8.88889 46.1174 9.65926 49.7173 11.2C53.1982 12.7111 56.2626 14.8296 58.9104 17.5556C61.5583 14.8296 64.6227 12.7111 68.1036 11.2C71.7035 9.65926 75.4819 8.88889 79.4388 8.88889C83.3065 8.88889 87.0105 9.62963 90.5509 11.1111C93.9723 12.563 97.0069 14.5926 99.6548 17.2C102.273 19.837 104.311 22.8593 105.769 26.2667C107.256 29.7926 108 33.4815 108 37.3333V64Z" fill="#3B85F2"/>
<path d="M22.7758 35.0762C22.7758 37.1762 23.1793 39.1985 23.9863 41.1429C24.7933 42.9836 25.9127 44.6299 27.3445 46.0818C28.7763 47.5077 30.4293 48.6225 32.3036 49.4262C34.23 50.2299 36.2606 50.6318 38.3952 50.6318C40.5038 50.6318 42.5344 50.2299 44.4868 49.4262C46.3351 48.6225 47.9881 47.5077 49.4459 46.0818C50.8777 44.6299 51.9841 42.9836 52.7651 41.1429C53.5981 39.1985 54.0146 37.1762 54.0146 35.0762C54.0146 32.9762 53.5981 30.954 52.7651 29.0096C51.9841 27.1429 50.8777 25.4966 49.4459 24.0707C47.9881 22.6448 46.3351 21.5299 44.4868 20.7262C42.5344 19.9225 40.5038 19.5207 38.3952 19.5207C36.2606 19.5207 34.23 19.9225 32.3036 20.7262C30.4293 21.5299 28.7763 22.6448 27.3445 24.0707C25.9127 25.4966 24.7933 27.1429 23.9863 29.0096C23.1793 30.954 22.7758 32.9762 22.7758 35.0762ZM38.3952 10.1873C41.7794 10.1873 45.0204 10.8355 48.1183 12.1318C51.112 13.4022 53.7673 15.1781 56.0842 17.4596C58.375 19.767 60.1582 22.4114 61.4338 25.3929C62.7355 28.4781 63.3863 31.7059 63.3863 35.0762C63.3863 38.4466 62.7355 41.6744 61.4338 44.7596C60.1582 47.7411 58.375 50.3855 56.0842 52.6929C53.7673 54.9744 51.112 56.7503 48.1183 58.0207C45.0204 59.317 41.7794 59.9651 38.3952 59.9651C35.011 59.9651 31.77 59.317 28.6721 58.0207C25.6784 56.7503 23.0231 54.9744 20.7062 52.6929C18.4154 50.3855 16.6322 47.7411 15.3566 44.7596C14.055 41.6744 13.4042 38.4466 13.4042 35.0762C13.4042 31.7059 14.055 28.4781 15.3566 25.3929C16.6322 22.4114 18.4154 19.767 20.7062 17.4596C23.0231 15.1781 25.6784 13.4022 28.6721 12.1318C31.77 10.8355 35.011 10.1873 38.3952 10.1873Z" fill="#3B85F2"/>
<path d="M64.9037 35.0762C64.9037 37.1762 65.3072 39.1985 66.1142 41.1429C66.9212 42.9836 68.0406 44.6299 69.4723 46.0818C70.9041 47.5077 72.5572 48.6225 74.4315 49.4262C76.3579 50.2299 78.3884 50.6318 80.5231 50.6318C82.6317 50.6318 84.6622 50.2299 86.6146 49.4262C88.4629 48.6225 90.116 47.5077 91.5738 46.0818C93.0056 44.6299 94.112 42.9836 94.8929 41.1429C95.726 39.1985 96.1425 37.1762 96.1425 35.0762C96.1425 32.9762 95.726 30.954 94.8929 29.0096C94.112 27.1429 93.0056 25.4966 91.5738 24.0707C90.116 22.6448 88.4629 21.5299 86.6146 20.7262C84.6622 19.9225 82.6317 19.5207 80.5231 19.5207C78.3884 19.5207 76.3579 19.9225 74.4315 20.7262C72.5572 21.5299 70.9041 22.6448 69.4723 24.0707C68.0406 25.4966 66.9212 27.1429 66.1142 29.0096C65.3072 30.954 64.9037 32.9762 64.9037 35.0762ZM80.5231 10.1873C83.9073 10.1873 87.1483 10.8355 90.2461 12.1318C93.2399 13.4022 95.8952 15.1781 98.2121 17.4596C100.503 19.767 102.286 22.4114 103.562 25.3929C104.863 28.4781 105.514 31.7059 105.514 35.0762C105.514 38.4466 104.863 41.6744 103.562 44.7596C102.286 47.7411 100.503 50.3855 98.2121 52.6929C95.8952 54.9744 93.2399 56.7503 90.2461 58.0207C87.1483 59.317 83.9073 59.9651 80.5231 59.9651C77.1389 59.9651 73.8978 59.317 70.8 58.0207C67.8063 56.7503 65.151 54.9744 62.8341 52.6929C60.5433 50.3855 58.76 47.7411 57.4845 44.7596C56.1828 41.6744 55.532 38.4466 55.532 35.0762C55.532 31.7059 56.1828 28.4781 57.4845 25.3929C58.76 22.4114 60.5433 19.767 62.8341 17.4596C65.151 15.1781 67.8063 13.4022 70.8 12.1318C73.8978 10.8355 77.1389 10.1873 80.5231 10.1873Z" fill="#3B85F2"/>
<path d="M20.3945 0V14.5778L24.7233 12.0889L30.0785 21.3333L20.3945 26.8889V64H9.68403V33.0667L5.35522 35.5556L0 26.3111L9.68403 20.7556V0H20.3945Z" fill="#3B85F2"/>
</svg>
