<svg width="24" height="24" viewBox="0 0 24 24" fill="none" xmlns="http://www.w3.org/2000/svg">
<path d="M19.2308 7.99987C18.6722 7.99362 18.1398 8.14362 17.6412 8.43111L16.4077 4.99992H19.497C19.9957 4.99992 20.3969 4.33118 20.3969 3.49994V1.49998C20.3969 0.668739 19.9957 0 19.497 0H17.7987C17.5437 0 17.3 0.181247 17.1313 0.493742L15.7253 3.09995L14.8705 0.724988C14.7056 0.274995 14.4131 0 14.0982 0H11.0988C10.7689 0 10.499 0.449993 10.499 0.999984V1.99997C10.499 2.54996 10.7689 2.99995 11.0988 2.99995H13.5883L14.3082 4.99992H8.54564C7.88203 3.55619 6.86225 2.49996 4.80019 2.49996H2.71938C2.21324 2.49996 1.78958 3.18745 1.80083 4.03118C1.80833 4.84367 2.20949 5.49991 2.70064 5.49991H4.80019C5.71874 5.49991 6.25113 6.18115 6.5923 7.04989L6.16864 8.33111C5.68125 8.08737 5.16011 7.97487 4.62023 8.00612C2.09702 8.15612 0.0612012 11.5998 0.00121402 15.8122C-0.0587731 20.3184 2.11201 23.9996 4.80019 23.9996C7.03471 23.9996 8.91306 21.4496 9.44919 17.9997H12.606C13.1197 17.9997 13.5283 17.2872 13.5058 16.431C13.4271 13.4873 14.1619 10.5748 15.6129 8.61861L16.0815 9.91859C15.0467 11.3998 14.3906 13.5998 14.4019 16.056C14.4206 20.4059 16.5464 23.9621 19.1559 23.9996C21.8403 24.0434 24.0223 20.4059 23.9998 15.931C23.9736 11.5811 21.8403 8.03112 19.2308 7.99987ZM4.80019 20.9997C3.14679 20.9997 1.80083 18.7559 1.80083 15.9997C1.80083 13.2435 3.14679 10.9998 4.80019 10.9998C4.95765 10.9998 5.11512 11.0186 5.26884 11.0623L3.71292 15.7747C3.38299 16.7747 3.8179 17.9997 4.50025 17.9997H7.54835C7.08345 19.7622 6.02617 20.9997 4.80019 20.9997ZM22.1927 16.2747C22.1102 18.8122 20.8805 20.8622 19.3621 20.9934C17.6337 21.1497 16.1977 18.8497 16.1977 15.9997C16.1977 14.6623 16.5127 13.4498 17.0263 12.556L18.8784 17.706C19.0471 18.181 19.4183 18.3309 19.7032 18.0497L20.2169 17.5372C20.5018 17.256 20.5918 16.6372 20.4231 16.1622L18.601 11.1061C18.7959 11.0373 18.9946 11.0061 19.1971 11.0061C20.9067 10.9998 22.2827 13.3935 22.1927 16.2747Z" fill="#767D87"/>
</svg>
